<svg xmlns="http://www.w3.org/2000/svg" xmlns:xlink="http://www.w3.org/1999/xlink" width="0" height="0" version="1.1" style="width: 0; height: 0;">
  <defs>
    <symbol id="icon-responsive" viewBox="0 0 396.5 396.5">
      <title>Devices</title>
      <path d="M304.4 330.9h-43.2c-1.6 0-2.8-1.3-2.8-2.8v-10.5c0-1.6-1.3-2.8-2.8-2.8h-60.5c-1.6 0-2.8 1.3-2.8 2.8v10.5c0 1.6-1.3 2.8-2.8 2.8h-32.5c-1.6 0-2.8 1.3-2.8 2.8v12.2c0 1.6 1.3 2.8 2.8 2.8h147.5c1.6 0 2.8-1.3 2.8-2.8v-12.2C307.3 332.2 306 330.9 304.4 330.9z"></path>
      <path d="M377 46.4h-308.4c-10.7 0-19.5 8.7-19.5 19.5 0 0 0 37.1 0 50.8 0 6.7-0.5 7.7 4 7.7 2.4 0 5 0 7.7 0 3.8 0 3-0.9 3-7.8 0-13.6 0-50.6 0-50.6 0-2.6 2.2-4.7 4.7-4.7h308.4c2.6 0 4.7 2.2 4.7 4.7v190h-219.9c0 0-7.7 0-7.7 10 0 5.9 0 17.8 0 23.8 0 10 8 10 8 10h214.9c10.7 0 19.5-8.7 19.5-19.5V65.8C396.5 55.1 387.8 46.4 377 46.4zM222.8 282.8c-4.8 0-8.8-3.9-8.8-8.8s3.9-8.8 8.8-8.8c4.8 0 8.8 3.9 8.8 8.8S227.7 282.8 222.8 282.8z"></path>
      <path d="M124.1 141.6H12.6C5.6 141.6 0 147.3 0 154.2v183.4c0 6.9 5.6 12.6 12.6 12.6h111.6c6.9 0 12.6-5.6 12.6-12.6V154.2C136.7 147.3 131 141.6 124.1 141.6zM54.6 154.4h27.5c1.3 0 2.4 1.1 2.4 2.4 0 1.3-1.1 2.4-2.4 2.4H54.6c-1.3 0-2.4-1.1-2.4-2.4C52.2 155.5 53.3 154.4 54.6 154.4zM68.2 341.3c-3.6 0-6.5-2.9-6.5-6.5s2.9-6.5 6.5-6.5 6.5 2.9 6.5 6.5S71.8 341.3 68.2 341.3zM125.9 322.2c0 1.7-1.3 3-3 3H13.8c-1.6 0-3-1.4-3-3V169.8c0-1.7 1.3-3 3-3h109.1c1.6 0 3 1.4 3 3V322.2z"></path>
    </symbol>
    
    <symbol id="icon-stopwatch" viewBox="0 0 472.8 472.8">
      <title>Stopwatch</title>
      <path d="M398.1 128.7l13.9-13.9c3.9 1.8 8.6 1.1 11.8-2.1l2.5-2.5c4.1-4.1 4.1-10.7 0-14.8l-17.8-17.8c-4.1-4.1-10.7-4.1-14.8 0l-2.5 2.5c-4.1 4.1-4.1 10.7 0 14.8l0.6 0.5 -12.9 12.9C345.9 77.9 303.1 57.8 255.5 53.5V40.7h1.9c9.6 0 17.4-7.8 17.4-17.4v-5.8C274.8 7.8 267 0 257.3 0H215.5c-9.6 0-17.4 7.8-17.4 17.4v5.8c0 9.6 7.8 17.4 17.4 17.4h1.9v12.8C114.7 62.6 32.4 146.2 26.6 251.1c-6.4 115.7 82.5 215 198.2 221.4 3.9 0.2 7.8 0.3 11.7 0.3 111.4 0 203.5-87.2 209.6-198.6C449.3 219.3 430.7 168 398.1 128.7zM418.3 272.7c-5.5 99.9-90.8 177.3-191.9 171.8C126.1 439 49.1 352.9 54.6 252.7c5.3-96.5 85.1-172.1 181.7-172.1 3.4 0 6.8 0.1 10.2 0.3C346.7 86.4 423.8 172.5 418.3 272.7zM398.3 260.9h-11.3c0-0.3 0.1-0.6 0.1-0.9 0-13-10.6-23.5-23.6-23.5H272.2c-8.3-14.4-24-23.8-41.1-23.8 -0.3 0-0.5 0-0.8 0V92.9C323.1 92.9 398.3 168.1 398.3 260.9zM373.5 257.3c0 5.3-4.3 9.5-9.5 9.5H263.5c-4.1 13.8-16.9 23.8-32 23.8 -18.4 0-33.4-14.9-33.4-33.4 0-18.4 14.9-33.4 33.4-33.4 15.1 0 27.9 10.1 32 23.8h100.4C369.2 247.8 373.4 252.1 373.5 257.3z"></path>
    </symbol>

    <symbol id="icon-wordpress" viewBox="0 0 5.56 5.56" fill-rule="evenodd">
      <title>Wordpress Logo</title>
      <g transform="matrix(1.0755 0 0 1.0755 -3.5103 -1.6684)">
        <path d="m5.85 1.91c0.58 0 1.11 0.22 1.5 0.59-0.19-0.01-0.39 0.11-0.4 0.37-0.02 0.53 0.64 0.65 0.29 1.72l-0.29 0.89-0.79-2.34c-0.01-0.04 0-0.06 0.05-0.06h0.22c0.01 0 0.02-0.01 0.02-0.02v-0.13c0-0.01-0.01-0.02-0.02-0.02-0.43 0.02-0.85 0.02-1.27 0-0.01 0-0.02 0.01-0.02 0.02v0.13c0 0.01 0.01 0.02 0.02 0.02h0.23c0.05 0 0.06 0.02 0.08 0.05l0.33 0.89-0.49 1.48-0.81-2.38c-0.01-0.03 0-0.05 0.03-0.05h0.26c0.01 0 0.02-0.01 0.02-0.02v-0.13c0-0.01-0.01-0.02-0.02-0.02-0.27 0.01-0.54 0.02-0.79 0.02 0.4-0.61 1.08-1.01 1.86-1.01l0 0zm1.95 1.16c0.17 0.31 0.27 0.67 0.27 1.06 0 0.84-0.47 1.57-1.15 1.95l0.69-1.96c0.11-0.3 0.21-0.71 0.19-1.04h0zm-1.21 3.15c-0.23 0.08-0.48 0.13-0.74 0.13-0.22 0-0.44-0.03-0.65-0.1l0.68-1.96 0.71 1.93v0zm-1.69-0.09c-0.75-0.36-1.27-1.12-1.27-2.01 0-0.33 0.07-0.64 0.2-0.92l1.07 2.93 0 0zm0.95-4.44c1.34 0 2.43 1.09 2.43 2.43s-1.09 2.43-2.43 2.43-2.43-1.09-2.43-2.43 1.09-2.43 2.43-2.43zm0-0.15c1.43 0 2.58 1.16 2.58 2.58s-1.16 2.58-2.58 2.58-2.58-1.16-2.58-2.58 1.16-2.58 2.58-2.58z"></path>
      </g>
    </symbol>

    <symbol id="icon-magento" viewBox="0 0 256 303">
      <title>Magento Logo</title>
      <path d="M144.9 90.7L144.9 262.9 127.9 273.2 111 262.8 111 90.8 67.1 117.8 67.1 265.1 127.9 302.3 189.3 264.8 189.3 117.7 144.9 90.7 144.9 90.7ZM127.9 0L0 77.5 0 224.8 33.2 244.3 33.2 97.1 127.9 39.5 222.8 97 223.1 97.2 223.1 244.1 256 224.8 256 77.5 127.9 0 127.9 0Z"></path>
    </symbol>

    <symbol id="icon-eye" viewBox="0 0 32 32">
      <title>eye</title>
      <path d="M16 6c-6.979 0-13.028 4.064-16 10 2.972 5.936 9.021 10 16 10s13.027-4.064 16-10c-2.972-5.936-9.021-10-16-10zM23.889 11.303c1.88 1.199 3.473 2.805 4.67 4.697-1.197 1.891-2.79 3.498-4.67 4.697-2.362 1.507-5.090 2.303-7.889 2.303s-5.527-0.796-7.889-2.303c-1.88-1.199-3.473-2.805-4.67-4.697 1.197-1.891 2.79-3.498 4.67-4.697 0.122-0.078 0.246-0.154 0.371-0.228-0.311 0.854-0.482 1.776-0.482 2.737 0 4.418 3.582 8 8 8s8-3.582 8-8c0-0.962-0.17-1.883-0.482-2.737 0.124 0.074 0.248 0.15 0.371 0.228v0zM16 13c0 1.657-1.343 3-3 3s-3-1.343-3-3 1.343-3 3-3 3 1.343 3 3z"></path>
    </symbol>

    <symbol id="icon-github" viewBox="0 0 32 32">
      <title>github</title>
      <path d="M16 0.395c-8.836 0-16 7.163-16 16 0 7.069 4.585 13.067 10.942 15.182 0.8 0.148 1.094-0.347 1.094-0.77 0-0.381-0.015-1.642-0.022-2.979-4.452 0.968-5.391-1.888-5.391-1.888-0.728-1.849-1.776-2.341-1.776-2.341-1.452-0.993 0.11-0.973 0.11-0.973 1.606 0.113 2.452 1.649 2.452 1.649 1.427 2.446 3.743 1.739 4.656 1.33 0.143-1.034 0.558-1.74 1.016-2.14-3.554-0.404-7.29-1.777-7.29-7.907 0-1.747 0.625-3.174 1.649-4.295-0.166-0.403-0.714-2.030 0.155-4.234 0 0 1.344-0.43 4.401 1.64 1.276-0.355 2.645-0.532 4.005-0.539 1.359 0.006 2.729 0.184 4.008 0.539 3.054-2.070 4.395-1.64 4.395-1.64 0.871 2.204 0.323 3.831 0.157 4.234 1.026 1.12 1.647 2.548 1.647 4.295 0 6.145-3.743 7.498-7.306 7.895 0.574 0.497 1.085 1.47 1.085 2.963 0 2.141-0.019 3.864-0.019 4.391 0 0.426 0.288 0.925 1.099 0.768 6.354-2.118 10.933-8.113 10.933-15.18 0-8.837-7.164-16-16-16z"></path>
    </symbol>

    <symbol id="icon-info" viewBox="0 0 512 512">
      <title>Information</title>
      <path d="M256 90c91.74 0 166 74.2 166 166 0 91.74-74.24 166-166 166 -91.74 0-166-74.24-166-166C90 164.3 164.2 90 256 90M256 50C142.23 50 50 142.2 50 256c0 113.8 92.2 206 206 206 113.77 0 206-92.23 206-206C462 142.2 369.8 50 256 50L256 50zM252.57 371.81c-28.21 9.91-51.47-1.45-46.8-28.55 4.67-27.1 31.44-85.11 35.26-96.08 3.82-10.97-3.5-13.98-11.35-9.51 -4.52 2.61-11.25 7.84-17.02 12.93 -1.6-3.22-3.85-6.91-5.54-10.43 9.42-9.44 25.16-22.09 43.8-26.68 22.27-5.5 59.5 3.3 43.5 45.86 -11.42 30.34-19.5 51.28-24.59 66.9 -5.09 15.6 1 18.9 9.9 12.79 6.96-4.75 14.37-11.21 19.81-16.23 2.52 4.1 3.3 5.4 5.8 10.1C295.86 342.5 271.2 365.2 252.6 371.81zM311.02 184.13c-12.79 10.89-31.76 10.66-42.37-0.53 -10.61-11.18-8.84-29.08 3.96-39.97 12.79-10.89 31.76-10.65 42.4 0.5C325.58 155.3 323.8 173.2 311 184.13z"></path>
    </symbol>

    <symbol id="icon-cancel" viewBox="0 0 32 32">
      <title>Cancel</title>
      <path d="M16 0c-8.837 0-16 7.163-16 16s7.163 16 16 16 16-7.163 16-16-7.163-16-16-16zM16 29c-7.18 0-13-5.82-13-13s5.82-13 13-13 13 5.82 13 13-5.82 13-13 13z"></path>
      <path d="M21 8l-5 5-5-5-3 3 5 5-5 5 3 3 5-5 5 5 3-3-5-5 5-5z"></path>
    </symbol>
  </defs>
</svg>