<svg xmlns="http://www.w3.org/2000/svg" width="246" height="69" viewBox="0 0 246 69" version="1.0">
  <g fill="none" fill-rule="evenodd" stroke="none" stroke-width="1" >
    <g transform="translate(0.000000, 1.000000)">
      <g>
        <path d="M21.264,42.18 L18.89,42.18 L13.761,24.215 L13.702,24.215 L8.488,42.18 L6.082,42.18 L0.288,21.956 L2.345,21.956 L7.328,39.919 L7.387,39.919 L12.572,21.956 L14.978,21.956 L20.076,39.919 L20.135,39.919 L25.205,21.956 L27.117,21.956" fill="#fff"></path>
        <path d="M37.664,41.715 C36.39,42.236 34.737,42.525 33.376,42.525 C28.479,42.525 26.653,39.224 26.653,34.791 C26.653,30.27 29.146,27.054 32.883,27.054 C37.055,27.054 38.764,30.416 38.764,34.384 L38.764,35.313 L28.651,35.313 C28.651,38.442 30.332,40.962 33.519,40.962 C34.852,40.962 36.793,40.413 37.663,39.859 L37.664,41.715 Z M36.766,33.748 C36.766,31.169 35.722,28.62 32.999,28.62 C30.305,28.62 28.652,31.314 28.652,33.748 L36.766,33.748 L36.766,33.748 Z M36.766,33.748" fill="#fff"></path>
        <path d="M40.185,40.035 C41.287,40.584 42.619,40.962 44.038,40.962 C45.776,40.962 47.312,40.005 47.312,38.324 C47.312,34.82 40.213,35.369 40.213,31.081 C40.213,28.156 42.588,27.054 45.023,27.054 C45.806,27.054 47.369,27.228 48.674,27.721 L48.501,29.314 C47.544,28.878 46.24,28.619 45.227,28.619 C43.344,28.619 42.039,29.199 42.039,31.081 C42.039,33.834 49.311,33.486 49.311,38.324 C49.311,41.454 46.384,42.525 44.153,42.525 C42.733,42.525 41.314,42.353 40.01,41.83" fill="#fff"></path>
        <path d="M58.03,28.968 L54.668,28.968 L54.668,38.529 C54.668,39.861 55.16,40.963 56.64,40.963 C57.335,40.963 57.799,40.817 58.32,40.614 L58.437,42.122 C58.002,42.295 57.104,42.526 56.206,42.526 C52.96,42.526 52.846,40.296 52.846,37.601 L52.846,28.968 L49.949,28.968 L49.949,27.403 L52.846,27.403 L52.846,23.839 L54.669,23.202 L54.669,27.403 L58.031,27.403" fill="#fff"></path>
        <path d="M73.015,27.055 C77.796,27.055 79.912,30.763 79.912,34.792 C79.912,38.818 77.795,42.526 73.015,42.526 C68.235,42.526 66.12,38.818 66.12,34.792 C66.12,30.763 68.235,27.055 73.015,27.055 L73.015,27.055 Z M73.015,40.962 C76.203,40.962 77.912,38.21 77.912,34.791 C77.912,31.373 76.203,28.619 73.015,28.619 C69.828,28.619 68.119,31.372 68.119,34.791 C68.12,38.21 69.828,40.962 73.015,40.962 L73.015,40.962 Z M73.015,40.962" fill="#fff"></path>
        <path d="M83.398,28.968 L80.413,28.968 L80.413,27.403 L83.398,27.403 L83.398,26.33 C83.398,23.231 83.513,20.103 87.31,20.103 C87.888,20.103 88.671,20.188 89.018,20.392 L88.903,21.986 C88.527,21.785 87.976,21.667 87.453,21.667 C84.962,21.667 85.223,24.361 85.223,26.13 L85.223,27.403 L88.556,27.403 L88.556,28.968 L85.223,28.968 L85.223,42.18 L83.399,42.18" fill="#fff"></path>
        <path d="M97.042,21.956 L106.952,21.956 L106.952,23.694 L99.043,23.694 L99.043,30.91 L106.546,30.91 L106.546,32.647 L99.043,32.647 L99.043,40.442 L107.3,40.442 L107.3,42.18 L97.042,42.18" fill="#fff"></path>
        <path d="M110.308,30.88 C110.308,29.749 110.308,28.59 110.191,27.402 L111.958,27.402 L111.958,30.038 L112.016,30.038 C112.626,28.706 113.726,27.054 116.796,27.054 C120.448,27.054 121.838,29.488 121.838,32.732 L121.838,42.18 L120.013,42.18 L120.013,33.197 C120.013,30.417 119.028,28.62 116.506,28.62 C113.174,28.62 112.131,31.544 112.131,34.009 L112.131,42.181 L110.308,42.181" fill="#fff"></path>
        <path d="M137.19,40.962 C137.19,45.077 135.337,48.437 130.267,48.437 C128.325,48.437 126.559,47.886 125.803,47.654 L125.949,45.83 C127.08,46.409 128.702,46.872 130.296,46.872 C134.988,46.872 135.393,43.453 135.393,39.28 L135.337,39.28 C134.352,41.425 132.729,42.179 130.845,42.179 C126.123,42.179 124.616,38.063 124.616,34.79 C124.616,30.298 126.354,27.053 130.701,27.053 C132.669,27.053 133.946,27.313 135.307,29.081 L135.365,29.081 L135.365,27.4 L137.189,27.4 L137.19,40.962 Z M130.875,40.613 C134.178,40.613 135.366,37.485 135.366,34.791 C135.366,31.227 134.322,28.619 130.989,28.619 C127.513,28.619 126.615,31.921 126.615,34.791 C126.615,37.688 127.776,40.613 130.875,40.613 L130.875,40.613 Z M130.875,40.613" fill="#fff"></path>
        <path d="M140.572998,20.447998 L140.572998,42.1799984 L142.396998,42.1799984 L142.396998,20.447998 L140.572998,20.447998 Z M140.572998,20.447998" fill="#fff"></path>
        <path d="M154.658,39.803 L154.599,39.803 C153.789,41.569 151.732,42.525 149.907,42.525 C145.706,42.525 145.039,39.688 145.039,38.353 C145.039,33.4 150.311,33.167 154.136,33.167 L154.484,33.167 L154.484,32.414 C154.484,29.894 153.586,28.619 151.123,28.619 C149.588,28.619 148.14,28.967 146.778,29.836 L146.778,28.068 C147.907,27.518 149.819,27.054 151.123,27.054 C154.775,27.054 156.311,28.706 156.311,32.561 L156.311,39.078 C156.311,40.266 156.311,41.165 156.454,42.18 L154.659,42.18 L154.658,39.803 Z M154.483,34.731 L153.962,34.731 C150.804,34.731 147.038,35.052 147.038,38.296 C147.038,40.237 148.428,40.962 150.109,40.962 C154.398,40.962 154.484,37.224 154.484,35.63 L154.484,34.731 L154.483,34.731 Z M154.483,34.731" fill="#fff"></path>
        <path d="M159.727,30.88 C159.727,29.749 159.727,28.59 159.613,27.402 L161.378,27.402 L161.378,30.038 L161.437,30.038 C162.046,28.706 163.146,27.054 166.218,27.054 C169.868,27.054 171.259,29.488 171.259,32.732 L171.259,42.18 L169.434,42.18 L169.434,33.197 C169.434,30.417 168.45,28.62 165.929,28.62 C162.596,28.62 161.554,31.544 161.554,34.009 L161.554,42.181 L159.728,42.181" fill="#fff"></path>
        <path d="M186.519,42.18 L184.693,42.18 L184.693,39.832 L184.636,39.832 C183.651,41.715 182.145,42.525 180.029,42.525 C175.974,42.525 173.945,39.165 173.945,34.791 C173.945,30.299 175.683,27.054 180.029,27.054 C182.927,27.054 184.376,29.17 184.636,29.894 L184.693,29.894 L184.693,20.447 L186.519,20.447 L186.519,42.18 Z M180.319,40.962 C183.564,40.962 184.693,37.484 184.693,34.791 C184.693,32.097 183.564,28.619 180.319,28.619 C176.843,28.619 175.944,31.921 175.944,34.791 C175.944,37.659 176.843,40.962 180.319,40.962 L180.319,40.962 Z M180.319,40.962" fill="#fff"></path>
        <path d="M230.701,66.921 C212.416,66.921 197.589,52.095 197.589,33.81 C197.589,15.523 212.416,0.697 230.701,0.697" stroke="#e6dab0" stroke-width="1.8228"></path>
        <path d="M227.276,14.894 L224.271,26.139 L227.284,29.193 L230.372,26.082" fill="#e6dab0"></path>
        <path d="M214.168,20.42 L219.993,30.498 L224.281,30.526 L224.267,26.143" fill="#e6dab0"></path>
        <path fill="#fff" d="M208.787,33.6 L220.033,36.606 L223.088,33.592 L219.977,30.504"></path>
        <path d="M214.313,46.714 L224.391,40.885 L224.419,36.597 L220.035,36.613" fill="#e6dab0"></path>
        <path d="M227.493,52.08 L230.501,40.835 L227.486,37.781 L224.396,40.893" fill="#e6dab0"></path>
        <path d="M240.603,46.555 L234.775,36.477 L230.486,36.448 L230.502,40.833" fill="#e6dab0"></path>
        <path d="M245.979,33.368 L234.732,30.362 L231.678,33.375 L234.788,36.463" fill="#e6dab0"></path>
        <path d="M240.455,20.256 L230.379,26.082 L230.35,30.371 L234.733,30.358" fill="#e6dab0"></path>
      </g>
    </g>
  </g>
</svg>